<svg width="129" height="19" fill="none" xmlns="http://www.w3.org/2000/svg"><path fill-rule="evenodd" clip-rule="evenodd" d="M2.67 0l8.382 16.743-1.054 2.083L.226 0H2.67zm27.18 0l-9.695 18.826L9.946 0h2.366l7.843 14.735a236.633 236.633 0 002.841-5.623c.506-1.038 1.008-2.063 1.505-3.075.497-1.013.947-1.937 1.35-2.774.403-.837.741-1.548 1.015-2.133.275-.586.455-.963.54-1.13h2.443zm18.5 1.832V0H35.902v18.851H48.35V17.02H37.806v-6.652h8.795V8.535h-8.795V1.832H48.35zm5.539 17.02V0h1.903v17.019h10.543v1.832H53.889zM71.874 0v18.851h9.232c.137 0 .441-.046.913-.138.471-.092.981-.297 1.53-.615.257-.15.527-.347.81-.59a3.95 3.95 0 00.758-.89c.223-.352.408-.766.553-1.243.146-.477.219-1.034.219-1.67 0-.72-.094-1.347-.283-1.882a5.048 5.048 0 00-.72-1.38 3.808 3.808 0 00-.99-.93 5.543 5.543 0 00-1.119-.552c.378-.368.703-.874.977-1.518.275-.645.412-1.419.412-2.322 0-.67-.073-1.247-.219-1.732a5.042 5.042 0 00-.553-1.255 3.866 3.866 0 00-.745-.879A4.933 4.933 0 0081.016.29a5.377 5.377 0 00-.72-.201A4.201 4.201 0 0079.537 0h-7.663zm9.18 17.019c.069 0 .258-.03.566-.088.309-.059.639-.197.99-.414.352-.218.665-.548.939-.992.274-.443.411-1.05.411-1.82s-.137-1.376-.411-1.82c-.274-.443-.587-.778-.939-1.003-.351-.226-.686-.369-1.003-.427a4.951 4.951 0 00-.578-.088h-7.252v6.652h7.278zm-.964-8.585c-.3.067-.484.1-.553.1h-5.76V1.833h5.76c.035 0 .197.026.489.076.291.05.609.18.951.389.343.209.656.535.939.979.283.443.424 1.058.424 1.845 0 .77-.133 1.38-.398 1.832-.266.452-.566.795-.9 1.03-.335.234-.652.384-.952.451zM104.851 0v1.832H94.308v6.703h8.795v1.832h-8.794v6.652h10.542v1.832H92.406V0h12.445zm14.257 10.819l6.429 8.032h2.521l-7.484-9.438L128.058 0h-2.521l-6.429 8.033L113.04 0h-2.855l7.483 9.413-7.483 9.438h2.855l6.068-8.032z" fill="#E4E5EA"/></svg>